<svg width="14" height="13" viewBox="0 0 14 13" fill="none" xmlns="http://www.w3.org/2000/svg">
<path fill-rule="evenodd" clip-rule="evenodd" d="M6.09679 9.87942C5.91441 9.61088 5.58773 9.52521 5.31804 9.67522C5.19204 9.7352 5.09654 9.85518 5.05765 10.0023C5.01876 10.1495 5.04056 10.3084 5.11708 10.4357L5.39969 10.9145C5.58556 11.1781 5.91164 11.2578 6.17843 11.1047C6.30411 11.0463 6.39968 10.9276 6.43866 10.7815C6.47763 10.6354 6.45587 10.4774 6.3794 10.3512L6.09679 9.87942ZM4.11225 10.9709C3.96152 10.7103 3.85476 10.7315 3.58471 10.8793C3.31466 11.0343 2.95669 11.2666 3.13254 11.5131L3.41515 11.999C3.59928 12.265 3.92566 12.3477 4.19389 12.1961C4.32064 12.1392 4.41768 12.0212 4.45792 11.8749C4.49816 11.7286 4.47729 11.5697 4.40114 11.4427L4.11225 10.9709Z" fill="white"/>
<path d="M11.95 5.24603C12.2151 5.10225 12.5336 5.18422 12.7162 5.4432L13.0051 5.92203C13.0789 6.04976 13.0985 6.2076 13.0585 6.35304C13.0185 6.49848 12.923 6.61656 12.7979 6.67549C12.5282 6.8255 12.2015 6.73983 12.0191 6.47128L11.7302 5.99245C11.6616 5.86283 11.6464 5.70626 11.6886 5.56313C11.7307 5.42001 11.8261 5.30436 11.95 5.24603Z" fill="white"/>
<path d="M10.2544 6.55577C10.518 6.41042 10.8363 6.4894 11.0206 6.7459L11.3095 7.21769C11.3856 7.34475 11.4065 7.5036 11.3662 7.64989C11.326 7.79618 11.229 7.91425 11.1022 7.97115C10.834 8.12268 10.5076 8.04005 10.3235 7.77398L10.0409 7.28811C9.97211 7.16157 9.95618 7.00765 9.99724 6.86682C10.0383 6.72599 10.1323 6.61234 10.2544 6.55577Z" fill="white"/>
<path fill-rule="evenodd" clip-rule="evenodd" d="M10.2292 0.844981C10.2588 0.539777 10.5034 0.319174 10.7756 0.352064C10.8253 0.358583 10.8739 0.372802 10.92 0.394314C11.4664 0.661898 12.4712 2.71806 12.8041 3.51377C13.1369 4.30948 13.2751 4.92211 10.1853 6.80223C7.30893 8.54856 2.79347 11.5906 2.18429 11.999C2.13703 12.0334 2.08329 12.0551 2.02728 12.0624C1.74467 12.1046 0.903128 12.1609 0.582838 11.4568C0.199747 10.6118 0.532597 9.80902 1.21086 9.06965C2.75467 7.26696 3.96113 5.1361 4.75917 2.80256C4.75917 2.80256 5.14226 0.999898 6.01521 1.60548C6.88815 2.21106 7.86786 3.17577 9.1553 2.30965C10.4427 1.44352 10.2292 0.844981 10.2292 0.844981Z" stroke="white" stroke-width="0.65"/>
<path d="M2.76208 6.7318C2.78139 6.63984 2.83285 6.56043 2.90489 6.51144C2.97694 6.46244 3.06352 6.44796 3.14518 6.47126L5.02923 6.70364C5.19936 6.75838 5.29963 6.95512 5.25532 7.14726C5.23458 7.23976 5.18188 7.31921 5.10883 7.36809C5.03579 7.41697 4.9484 7.43125 4.86595 7.4078L3.01957 7.17543C2.85031 7.12386 2.74952 6.92924 2.79349 6.73885L2.76208 6.7318Z" fill="white"/>
<path d="M3.72293 5.33053C3.74362 5.23986 3.79566 5.16217 3.86754 5.1146C3.93942 5.06704 4.02523 5.05352 4.10602 5.07703L5.33066 5.3094C5.50408 5.3619 5.60671 5.5621 5.55989 5.75655C5.51306 5.951 5.33452 6.06607 5.16109 6.01357L3.94274 5.78119C3.77697 5.7327 3.67459 5.54654 3.71037 5.35869L3.72293 5.33053Z" fill="white"/>
<path d="M4.05579 3.92923C4.10177 3.73944 4.27536 3.62644 4.44516 3.67573L5.7012 3.90811C5.87133 3.96285 5.97159 4.1596 5.92728 4.35173C5.88404 4.5376 5.71801 4.65239 5.55047 4.61228L4.33211 4.3799C4.16635 4.33141 4.06397 4.14525 4.09975 3.9574L4.05579 3.92923Z" fill="white"/>
<path d="M9.67658 3.8377L10.2355 3.47857C10.3095 3.4304 10.3976 3.41743 10.4802 3.44256C10.5628 3.4677 10.633 3.52885 10.6751 3.61237C10.761 3.78579 10.7081 4.00433 10.5558 4.10528L9.99687 4.46441C9.84542 4.5632 9.65143 4.51037 9.55726 4.3447C9.46661 4.16756 9.51979 3.94163 9.67658 3.8377Z" fill="white"/>
</svg>
