<svg width="13" height="13" viewBox="0 0 13 13" fill="none" xmlns="http://www.w3.org/2000/svg">
<g opacity="1">
<path d="M10.818 7.06896L8.99883 6.57399L8.52668 4.83035L9.83656 3.51138L11.8305 4.05898L12.0404 3.28358L10.5649 2.2595L9.51487 0.787047L8.745 0.998372L9.27222 2.94369L7.96235 4.26227L6.18791 3.77493L5.72096 2.05179L7.19486 0.568088L6.63052 0L4.94988 0.568088L3.16268 0.9361L2.95274 1.7115L4.94988 2.2595L5.41684 3.98345L4.09619 5.31327L2.3928 4.85004L1.84083 2.82959L1.07095 3.04252L0.500763 4.83035L0.124268 6.47074L0.688606 7.03883L2.11222 5.60575L3.9549 6.10715L4.41747 7.80056L3.08485 9.14204L1.12284 8.6085L0.9149 9.3843L2.26521 10.6812L3.45003 11.9202L4.21951 11.7073L3.66874 9.69084L4.95587 8.39476L6.70995 8.87206L7.20005 10.6812L5.76047 12.1303L6.32481 12.6984L7.83181 12.1303L9.79345 11.7623L10.0018 10.9869L7.95955 10.4313L7.49339 8.71095L8.834 7.36144L10.5649 7.8323L11.1161 9.86641L11.886 9.65468C11.886 9.65468 12.0217 8.70671 12.2579 7.8323C12.4942 6.95789 12.8227 6.1875 12.8227 6.1875L12.2579 5.61901L10.818 7.06896Z" fill="white"/>
<path fill-rule="evenodd" clip-rule="evenodd" d="M12.6064 7.99246C12.0191 10.1837 10.308 11.8948 8.11673 12.4821C7.57387 12.6278 7.02149 12.6984 6.47387 12.6984C4.81197 12.6988 3.19014 12.0452 1.98379 10.8389C0.777442 9.63254 0.124268 8.01071 0.124268 6.34881C0.124268 5.80119 0.195299 5.24881 0.340537 4.70595C0.927839 2.51508 2.63895 0.803571 4.83022 0.21627C5.37308 0.0710317 5.92546 0 6.47308 0C8.13498 0 9.75681 0.653175 10.9632 1.85952C12.1695 3.06627 12.8231 4.6877 12.8227 6.3496C12.8227 6.89722 12.7516 7.4496 12.6064 7.99246ZM1.1072 4.91151C0.979823 5.3869 0.917918 5.86984 0.917918 6.34881C0.917918 7.80317 1.48935 9.22222 2.5453 10.2778C3.60085 11.3333 5.01951 11.9048 6.47387 11.9048C6.95324 11.9048 7.43617 11.8429 7.91117 11.7155C9.82863 11.202 11.3263 9.70436 11.8397 7.7873C11.9671 7.3119 12.029 6.82897 12.029 6.3496C12.029 4.89524 11.4576 3.47659 10.402 2.42103C9.34649 1.36508 7.92744 0.793651 6.47308 0.793651C5.99411 0.793651 5.51078 0.855556 5.03578 0.982937C3.11831 1.49683 1.62109 2.99405 1.1072 4.91151Z" fill="white"/>
</g>
</svg>
